# xmcd
#
# Track frame offsets: 
#        187
#        18457
#        42797
#        64915
#
# Disc length: 1106 seconds
#
# Revision: 2
# Processed by: cddbd v1.5.2PL0 Copyright (c) Steve Scherf et al.
# Submitted via: ExactAudioCopyFreeDBPlugin 1.0
#
DISCID=2d045004
DTITLE=小泉今日子 - BEAUTIFUL GIRLS
DYEAR=1995
DGENRE=Pop
TTITLE0=BEAUTIFUL GIRLS
TTITLE1=BEAUTIFUL GIRLS
TTITLE2=ガラスの瓶
TTITLE3=BEAUTIFUL GIRLS(Karaoke)
EXTD=
EXTT0=
EXTT1=
EXTT2=
EXTT3=
PLAYORDER=
